<svg id="BG" xmlns="http://www.w3.org/2000/svg" xmlns:xlink="http://www.w3.org/1999/xlink" viewBox="0 0 5760 3600"><defs><style>.cls-1{fill:#f7d2d2;}.cls-2{fill:url(#linear-gradient);}.cls-3{fill:#fff;opacity:0.1;}.cls-4{opacity:0.19;fill:url(#radial-gradient);}.cls-5{fill:url(#linear-gradient-2);}</style><linearGradient id="linear-gradient" x1="9197.56" y1="8747.3" x2="14957.56" y2="8747.3" gradientTransform="translate(-9197.56 -6957.54)" gradientUnits="userSpaceOnUse"><stop offset="0" stop-color="#fff" stop-opacity="0.1"/><stop offset="0.09" stop-color="#fff" stop-opacity="0.6"/><stop offset="0.13" stop-color="#ff612f" stop-opacity="0.2"/><stop offset="0.19" stop-color="#f75338" stop-opacity="0.8"/><stop offset="0.23" stop-color="#ff612f" stop-opacity="0.1"/><stop offset="0.31" stop-color="#fff"/><stop offset="0.41" stop-color="#ff612f" stop-opacity="0.2"/><stop offset="0.44" stop-color="#f75338" stop-opacity="0.8"/><stop offset="0.48" stop-color="#ff612f" stop-opacity="0.1"/><stop offset="0.61" stop-color="#fff"/><stop offset="0.69" stop-color="#fff" stop-opacity="0.1"/><stop offset="0.77" stop-color="#ff612f" stop-opacity="0.3"/><stop offset="0.8" stop-color="#f75338" stop-opacity="0.6"/><stop offset="0.83" stop-color="#ff612f" stop-opacity="0.3"/><stop offset="0.9" stop-color="#fff" stop-opacity="0.6"/><stop offset="0.99" stop-color="#fff" stop-opacity="0.1"/></linearGradient><radialGradient id="radial-gradient" cx="12077.56" cy="8762.72" r="1278.75" gradientTransform="translate(-9197.56 -6957.54)" gradientUnits="userSpaceOnUse"><stop offset="0.88" stop-color="#fff" stop-opacity="0"/><stop offset="1" stop-color="#fff"/></radialGradient><linearGradient id="linear-gradient-2" x1="9197.56" y1="8762.72" x2="14957.23" y2="8762.72" gradientTransform="translate(-9197.56 -6957.54)" gradientUnits="userSpaceOnUse"><stop offset="0" stop-color="#fff" stop-opacity="0.1"/><stop offset="0.09" stop-color="#fff" stop-opacity="0.6"/><stop offset="0.15" stop-color="#ff612f" stop-opacity="0.1"/><stop offset="0.2" stop-color="#f75338"/><stop offset="0.2" stop-color="#f75438" stop-opacity="0.96"/><stop offset="0.21" stop-color="#f85636" stop-opacity="0.84"/><stop offset="0.22" stop-color="#fa5934" stop-opacity="0.64"/><stop offset="0.23" stop-color="#fd5d32" stop-opacity="0.38"/><stop offset="0.24" stop-color="#ff612f" stop-opacity="0.1"/><stop offset="0.38" stop-color="#fff" stop-opacity="0.1"/><stop offset="0.51" stop-color="#fff"/><stop offset="0.59" stop-color="#ff612f" stop-opacity="0.3"/><stop offset="0.65" stop-color="#f75338"/><stop offset="0.69" stop-color="#ff612f" stop-opacity="0.3"/><stop offset="0.81" stop-color="#fff"/><stop offset="1" stop-color="#fff" stop-opacity="0.1"/></linearGradient></defs><title>Artboard 6</title><rect class="cls-1" width="5760" height="3600"/><path class="cls-2" d="M5760,2871.94c-173.39,0-330.12-30.42-479.15-93-132.75-55.73-256.27-135.89-377.62-245.05-225.25-202.64-408.35-477.18-585.43-742.69C4140.9,1526,3958,1251.74,3733.23,1049.55c-120.9-108.76-243.93-188.62-376.13-244.12-148.37-62.28-304.43-92.56-477.1-92.56s-328.73,30.28-477.1,92.56c-132.2,55.5-255.23,135.36-376.13,244.12C1802,1251.74,1619.1,1526,1442.2,1791.23c-177.08,265.5-360.18,540-585.43,742.68C735.43,2643.07,611.91,2723.23,479.15,2779c-149,62.56-305.76,93-479.14,93v-5.29c172.67,0,328.73-30.29,477.09-92.57,132.2-55.5,255.24-135.35,376.13-244.11,224.75-202.19,407.67-476.45,584.57-741.68,177.08-265.5,360.18-540,585.43-742.68,121.34-109.16,244.86-189.32,377.62-245.06,149-62.56,305.76-93,479.15-93s330.12,30.41,479.15,93c132.75,55.74,256.28,135.89,377.62,245.06,225.25,202.63,408.35,477.18,585.43,742.68C4499.1,2053.52,4682,2327.78,4906.77,2530c120.9,108.76,243.93,188.61,376.13,244.11,148.37,62.28,304.43,92.56,477.1,92.56Z"/><path class="cls-3" d="M4325.11,1797.28C3963.42,1255,3603.43,710.22,2880.09,710.22s-1083.45,545-1445.19,1087.31c361.69,542.31,721.65,1087.18,1445,1087.18S3963.36,2339.67,4325.11,1797.28Z"/><path class="cls-3" d="M1434.9,1797.53c361.69,542.31,721.65,1087.18,1445,1087.18,255.54,0,465.69-68.06,646.63-179.92C3081.15,2037,2633,1373.48,1802.34,1283.36,1671.51,1442.23,1553.3,1620,1434.9,1797.53Z"/><path class="cls-4" d="M4325.11,1805c-361.69-542.26-721.68-1087.06-1445-1087.06s-1083.45,545-1445.19,1087.31c361.69,542.31,721.65,1087.18,1445,1087.18S3963.36,2347.38,4325.11,1805Z"/><path class="cls-5" d="M2879.82,2887.36c-173.37,0-330.1-30.41-479.12-93-132.74-55.73-256.26-135.89-377.59-245.05-225.24-202.64-408.33-477.18-585.4-742.68-176.89-265.23-359.79-539.49-584.54-741.68C732.29,956.21,609.26,876.36,477.07,820.86,328.71,758.57,172.66,728.29,0,728.29V723c173.38,0,330.1,30.41,479.12,93,132.75,55.73,256.26,135.89,377.6,245,225.23,202.63,408.33,477.18,585.39,742.68,176.89,265.23,359.8,539.49,584.54,741.68,120.89,108.76,243.91,188.61,376.1,244.11,148.36,62.29,304.41,92.57,477.07,92.57s328.72-30.28,477.08-92.57c132.19-55.5,255.22-135.35,376.11-244.11,224.74-202.19,407.65-476.45,584.53-741.68,177.07-265.5,360.17-540,585.41-742.68C5024.28,951.87,5147.8,871.71,5280.55,816c149-62.56,305.74-93,479.12-93v5.29c-172.66,0-328.71,30.28-477.07,92.57-132.19,55.5-255.22,135.35-376.11,244.11-224.74,202.19-407.65,476.45-584.54,741.68-177.07,265.5-360.17,540-585.4,742.68-121.34,109.16-244.86,189.32-377.6,245.05C3209.93,2857,3053.21,2887.36,2879.82,2887.36Z"/></svg>