<svg width="57" height="52" viewBox="0 0 57 52" fill="none" xmlns="http://www.w3.org/2000/svg">
<path fill-rule="evenodd" clip-rule="evenodd" d="M5.74516 36.5655C8.27927 41.9767 20.5213 41.6331 33.0884 35.7979C45.6555 29.9628 53.7889 20.8458 51.2548 15.4345C48.7206 10.0233 36.4787 10.3669 23.9115 16.2021C11.3444 22.0372 3.21104 31.1542 5.74516 36.5655Z" stroke="#F75338"/>
<path fill-rule="evenodd" clip-rule="evenodd" d="M5.74518 15.4346C3.21106 20.8458 11.3444 29.9628 23.9115 35.7979C36.4787 41.6331 48.7207 41.9767 51.2548 36.5655C53.7889 31.1542 45.6555 22.0372 33.0884 16.2021C20.5213 10.367 8.2793 10.0233 5.74518 15.4346Z" stroke="#F75338"/>
<path fill-rule="evenodd" clip-rule="evenodd" d="M28.5 51C34.4962 51 39.3571 39.8071 39.3571 26C39.3571 12.1929 34.4962 1 28.5 1C22.5037 1 17.6428 12.1929 17.6428 26C17.6428 39.8071 22.5037 51 28.5 51Z" stroke="#F75338"/>
<path fill-rule="evenodd" clip-rule="evenodd" d="M28.4999 29.3784C29.999 29.3784 31.2142 28.1683 31.2142 26.6757C31.2142 25.183 29.999 23.973 28.4999 23.973C27.0009 23.973 25.7856 25.183 25.7856 26.6757C25.7856 28.1683 27.0009 29.3784 28.4999 29.3784Z" stroke="#F75338"/>
</svg>
