<svg width="23" height="45" viewBox="0 0 23 45" fill="none" xmlns="http://www.w3.org/2000/svg">
<path fill-rule="evenodd" clip-rule="evenodd" d="M12.5052 38.5055L12.1905 38.5299V22.4028L13.6794 22.6947C15.4589 23.0353 21.2694 24.6163 21.2694 30.369C21.2694 35.5866 16.8752 38.2136 12.5052 38.5055ZM11.0889 21.0163L9.01891 20.5907C4.50365 19.6663 2.11891 17.2461 2.11891 13.5974C2.11891 8.81769 6.57365 6.00823 10.7742 5.78931L11.0889 5.76499V21.0163ZM14.0305 21.5636L12.1905 21.1988V5.78931L12.5173 5.8258C17.9768 6.38526 20.3858 10.5812 20.991 12.9893L22.1047 12.6244C21.3905 9.63256 18.3521 5.24201 12.5052 4.74337L12.2268 4.71904V0.00012207H11.0405V4.70688L10.7621 4.71904C5.96838 4.98539 0.884172 8.20958 0.884172 13.6826C0.884172 19.0582 5.15733 21.0285 8.74049 21.7339L11.0889 22.1961V38.5299L10.7621 38.5055C5.0847 38.1042 1.8768 33.9326 1.15049 29.8704L0.000488281 30.1988C0.76312 34.6136 4.64891 39.1988 10.7621 39.588L11.0405 39.6123V44.0515H12.2268V39.6123L12.5173 39.588C18.3158 39.2109 22.5284 35.2947 22.5284 30.2839C22.5284 23.8367 16.0279 21.9771 14.0305 21.5636Z" fill="#F75338"/>
</svg>
