<svg id="Sano_-_Logos_-_Red_Orange" data-name="Sano - Logos - Red Orange" xmlns="http://www.w3.org/2000/svg" viewBox="0 0 856 254"><defs><style>.cls-1{fill:#f75338;}</style></defs><title>Lockup - Red Orange</title><path class="cls-1" d="M420.75,119.1l-26.08-5.54c-10.18-2.09-14.52-6.3-14.52-14.06,0-10.16,9.29-17.26,22.6-17.26,13.83,0,24.5,8.15,26.57,20.28l.17,1,21.16-4.32-.2-.94C446,76.94,427.83,63.71,403.11,63.71c-27,0-45.21,14.6-45.21,36.32,0,17.74,10.19,28.68,31.17,33.45l26.25,5.35c11.77,2.45,16.14,6.5,16.14,15,0,10.86-9.35,17.61-24.4,17.61-16.54,0-27.54-8.05-30.17-22.08l-.18-1L354.38,153l.12.88c2.91,22.1,22.84,36.38,50.77,36.38,28.66,0,47.18-14.75,47.18-37.57C452.45,135.25,441.49,123.63,420.75,119.1Z"/><path class="cls-1" d="M565.48,187.5H544.6V176.14c-8.62,9-21.07,14.15-36.12,14.15-26.09,0-49.37-20.93-49.37-52.21,0-31.09,23.28-52.21,49.37-52.21,15,0,27.5,5.18,36.12,14.15V88.66h20.88ZM544.6,138.08c0-20.73-16.25-33.88-32.71-33.88-18.26,0-32.51,13.15-32.51,33.88,0,20.92,14.25,33.88,32.51,33.88C528.35,172,544.6,159,544.6,138.08Z"/><path class="cls-1" d="M676.56,127.72V187.5H655.48V131.9c0-16.14-9.43-26.9-23.68-26.9-17.86,0-29.7,12-29.7,36.86V187.5H581.23V88.66H602.1v12.15c8-9.56,19.67-14.94,34.52-14.94C660.5,85.87,676.56,103,676.56,127.72Z"/><path class="cls-1" d="M792.37,137.88c0,31-23.71,52.41-52.8,52.41-29.29,0-53.2-21.37-53.2-52.41s23.91-52.21,53.2-52.21C768.66,85.67,792.37,106.84,792.37,137.88Zm-20.13,0c0-20.76-15.74-34.27-32.67-34.27-17.34,0-32.88,13.51-32.88,34.27s15.54,34.27,32.88,34.27C756.5,172.15,772.24,158.64,772.24,137.88Z"/><path class="cls-1" d="M63.5,94.27V74.5c33.71,0,50.37,25,65.07,47,13.68,20.51,25.49,38.22,48.62,38.22,14,0,23.8-6.48,32.42-16.11L221,160.3c-10.93,11.07-24.61,19.2-43.84,19.2-27.64,0-43.82-16.8-56.85-35-13,18.19-29.2,35-56.84,35V159.73c21,0,32.71-14.65,44.94-32.73C96.21,108.92,84.54,94.27,63.5,94.27Z"/><path class="cls-1" d="M177.19,94.27c-14,0-23.82,6.49-32.44,16.14L133.33,93.73C144.27,82.64,158,74.5,177.19,74.5c27.64,0,43.82,16.8,56.85,35,13-18.19,29.2-35,56.84-35V94.27c-21,0-32.71,14.65-44.94,32.73,12.23,18.07,23.9,32.73,44.94,32.73V179.5c-33.71,0-50.37-25-65.07-47C212.13,112,200.32,94.27,177.19,94.27Z"/></svg>